Coordinates
version=1
nRows=43
nColumns=12
inDegrees=yes

Units are S.I. units (second, meters, Newtons, ...)
Angles are in degrees

endheader
time	SC_y	SC_z	SC_x	AC_y	AC_z	AC_x	GH_y	GH_z	GH_yy	EL_x	PS_y
       0.0              -36.51          5.122          41.73          55.03          -7.06         -2.675         -174.5          13.38          44.17           70.8          80.09
   0.03685              -36.51          5.122          41.74          55.03         -7.058         -2.674         -174.5          13.38          44.18          70.81           80.1
    0.0737              -36.51          5.123          41.74          55.03         -7.055         -2.672         -174.5          13.38          44.18          70.82          80.11
    0.1105              -36.51          5.123          41.75          55.02         -7.053          -2.67         -174.5          13.38          44.18          70.83          80.12
    0.1474              -36.51          5.124          41.75          55.02          -7.05         -2.669         -174.5          13.38          44.19          70.84          80.13
    0.1842              -36.51          5.125          41.76          55.02         -7.047         -2.667         -174.4          13.38          44.19          70.85          80.14
    0.2211              -36.51          5.125          41.76          55.02         -7.044         -2.665         -174.4          13.38           44.2          70.86          80.15
    0.2579              -36.52          5.126          41.77          55.02          -7.04         -2.662         -174.4          13.39           44.2          70.87          80.17
    0.2948              -36.52          5.127          41.78          55.01         -7.037          -2.66         -174.4          13.39          44.21          70.89          80.18
    0.3316              -36.52          5.128          41.79          55.01         -7.033         -2.657         -174.4          13.39          44.21           70.9           80.2
    0.3685              -36.52          5.129           41.8          55.01         -7.029         -2.655         -174.3          13.39          44.22          70.91          80.21
    0.4053              -36.52           5.13           41.8           55.0         -7.024         -2.652         -174.3          13.39          44.22          70.93          80.23
    0.4422              -36.52          5.131          41.81           55.0         -7.019         -2.648         -174.3           13.4          44.23          70.95          80.25
     0.479              -36.52          5.132          41.83           55.0         -7.014         -2.645         -174.3           13.4          44.24          70.96          80.27
    0.5159              -36.52          5.133          41.84          54.99         -7.008         -2.641         -174.2           13.4          44.25          70.98           80.3
    0.5527              -36.53          5.135          41.85          54.99         -7.002         -2.637         -174.2          13.41          44.26          71.01          80.32
    0.5896              -36.53          5.136          41.86          54.98         -6.995         -2.633         -174.2          13.41          44.27          71.03          80.35
    0.6264              -36.53          5.138          41.88          54.98         -6.988         -2.628         -174.1          13.41          44.28          71.05          80.38
    0.6633              -36.53           5.14           41.9          54.97          -6.98         -2.622         -174.1          13.42          44.29          71.08          80.41
    0.7001              -36.53          5.142          41.91          54.97         -6.971         -2.617         -174.0          13.42           44.3          71.11          80.44
     0.737              -36.54          5.144          41.93          54.96         -6.961          -2.61         -174.0          13.43          44.32          71.15          80.48
    0.7738              -36.54          5.146          41.95          54.95         -6.951         -2.603         -173.9          13.43          44.33          71.18          80.52
    0.8107              -36.54          5.149          41.98          54.94         -6.939         -2.596         -173.9          13.44          44.35          71.22          80.57
    0.8475              -36.55          5.152          42.01          54.93         -6.926         -2.587         -173.8          13.44          44.37          71.27          80.62
    0.8843              -36.55          5.155          42.04          54.92         -6.911         -2.578         -173.7          13.45          44.39          71.32          80.68
    0.9212              -36.55          5.158          42.07          54.91         -6.895         -2.567         -173.6          13.46          44.41          71.37          80.74
     0.958              -36.56          5.162          42.11           54.9         -6.877         -2.555         -173.5          13.47          44.44          71.44          80.82
    0.9949              -36.56          5.167          42.15          54.88         -6.857         -2.542         -173.4          13.48          44.47          71.51           80.9
     1.032              -36.57          5.172          42.19          54.87         -6.834         -2.527         -173.3          13.49           44.5          71.58          80.99
     1.069              -36.58          5.178          42.25          54.85         -6.808         -2.509         -173.1           13.5          44.54          71.67          81.09
     1.105              -36.58          5.185          42.31          54.83         -6.778          -2.49         -173.0          13.52          44.58          71.78          81.21
     1.142              -36.59          5.192          42.38           54.8         -6.744         -2.467         -172.8          13.54          44.63          71.89          81.35
     1.179               -36.6          5.201          42.46          54.78         -6.704         -2.441         -172.6          13.56          44.69          72.03           81.5
     1.216              -36.62          5.211          42.55          54.74         -6.659         -2.411         -172.3          13.58          44.76          72.19          81.69
     1.253              -36.63          5.223          42.66          54.71         -6.605         -2.376         -172.0          13.61          44.84          72.37           81.9
      1.29              -36.65          5.237          42.79          54.66         -6.542         -2.335         -171.7          13.64          44.93          72.59          82.15
     1.327              -36.67          5.254          42.94          54.61         -6.467         -2.285         -171.3          13.68          45.04          72.85          82.45
     1.363              -36.69          5.274          43.13          54.54         -6.377         -2.226         -170.8          13.72          45.17          73.16          82.81
       1.4              -36.72          5.299          43.35          54.47         -6.268         -2.154         -170.2          13.78          45.33          73.54          83.24
     1.437              -36.75          5.329          43.62          54.37         -6.135         -2.067         -169.5          13.85          45.52          73.99          83.77
     1.474               -36.8          5.365          43.96          54.25          -5.97         -1.959         -168.6          13.93          45.76          74.56          84.42
     1.511              -36.85          5.411          44.38          54.11         -5.765         -1.824         -167.5          14.04          46.06          75.27          85.24
     1.548              -36.92          5.469          44.91          53.93         -5.507         -1.655         -166.1          14.17          46.44          76.16          86.27
